<?xml version="1.0" encoding="UTF-8"?>
<svg width="342px" height="81px" viewBox="0 0 342 81" version="1.1" xmlns="http://www.w3.org/2000/svg" xmlns:xlink="http://www.w3.org/1999/xlink">
    <title>Artboard</title>
    <g id="Artboard" stroke="none" stroke-width="1" fill="none" fill-rule="evenodd">
        <g id="logo" transform="translate(-0.000081, -0.000326)" fill-rule="nonzero">
            <path d="M29.0994739,0 C13.0089657,0 3.55271368e-15,13.0089656 3.55271368e-15,29.2135447 C3.55271368e-15,33.4357957 1.14152329,37.8861885 2.39630264,40.9669162 C11.1830173,59.7959396 28.4150488,74.4027119 29.0994739,74.4027119 C29.783899,74.4027119 47.0159305,59.7959396 55.8026451,40.7387745 C57.0574244,37.6580468 58.1989477,33.207654 58.1989477,28.985403 C58.1989477,13.0089656 45.1899821,0 29.0994739,0" id="Fill-1" fill="#2271BF"></path>
            <path d="M41.7886338,17.6198724 C38.8904194,14.7224728 34.1752193,14.7224728 31.2770049,17.6198724 L16.410314,32.4938964 C15.0064277,33.8977827 14.2331903,35.7644707 14.2331903,37.7493034 C14.2331903,39.734951 15.0064277,41.6024538 16.410314,43.0055253 C17.8590138,44.4550398 19.7631822,45.1793897 21.6665358,45.1793897 C23.5698894,45.1793897 25.473243,44.4550398 26.9219428,43.0055253 L41.7886338,28.132316 C43.19252,26.7284297 43.9657574,24.8617418 43.9657574,22.8760942 C43.9657574,20.8904466 43.19252,19.0237586 41.7886338,17.6198724 M40.6821465,27.025014 L33.2153946,34.4958398 L24.9167402,26.1971855 L32.3834922,18.7271744 C33.5274598,17.5832067 35.0307507,17.0112229 36.5324119,17.0112229 C38.034888,17.0112229 39.5381788,17.5832067 40.6821465,18.7271744 C41.7902633,19.8352912 42.4005424,21.3084348 42.4005424,22.8760942 C42.4005424,24.4429388 41.7902633,25.9168971 40.6821465,27.025014" id="Fill-4" fill="#FFFFFF"></path>
            <path d="M70.4293798,53.2176366 C70.4293798,54.6174489 71.5415706,55.7296397 72.9821225,55.7296397 C74.3827496,55.7296397 75.4941256,54.6174489 75.4941256,53.2176366 L75.4941256,46.2585 L81.2180379,46.2585 C87.5587476,46.2585 92.7473417,42.8820028 92.7473417,36.4174448 L92.7473417,36.3351508 C92.7473417,30.5289445 88.54709,26.6994232 81.7940957,26.6994232 L72.9821225,26.6994232 C71.5415706,26.6994232 70.4293798,27.8116139 70.4293798,29.2521658 L70.4293798,53.2176366 Z M75.4941256,41.6883329 L75.4941256,31.3111447 L81.3826258,31.3111447 C85.1705928,31.3111447 87.6003019,33.082502 87.6003019,36.4581844 L87.6003019,36.5412931 C87.6003019,39.54706 85.2121472,41.6883329 81.3826258,41.6883329 L75.4941256,41.6883329 Z M95.630075,28.1823442 C95.630075,29.6644505 96.8644846,30.6527929 98.471254,30.6527929 C100.076393,30.6527929 101.312432,29.6644505 101.312432,28.1823442 L101.312432,27.9346475 C101.312432,26.4525412 100.076393,25.5057532 98.471254,25.5057532 C96.8644846,25.5057532 95.630075,26.4525412 95.630075,27.9346475 L95.630075,28.1823442 Z M95.9999905,53.2583762 C95.9999905,54.6590033 97.1121813,55.7296397 98.471254,55.7296397 C99.8710662,55.7296397 100.982442,54.6590033 100.982442,53.2583762 L100.982442,36.0467145 C100.982442,34.6469022 99.8710662,33.5347114 98.471254,33.5347114 C97.0706269,33.5347114 95.9999905,34.6469022 95.9999905,36.0467145 L95.9999905,53.2583762 Z M106.129481,53.2583762 C106.129481,54.6590033 107.240857,55.7296397 108.59993,55.7296397 C109.999742,55.7296397 111.111933,54.6590033 111.111933,53.2583762 L111.111933,27.72932 C111.111933,26.3702473 109.999742,25.2588713 108.59993,25.2588713 C107.200118,25.2588713 106.129481,26.3702473 106.129481,27.72932 L106.129481,53.2583762 Z M116.258973,53.2583762 C116.258973,54.6590033 117.370349,55.7296397 118.729422,55.7296397 C120.129234,55.7296397 121.241425,54.6590033 121.241425,53.2583762 L121.241425,27.72932 C121.241425,26.3702473 120.129234,25.2588713 118.729422,25.2588713 C117.329609,25.2588713 116.258973,26.3702473 116.258973,27.72932 L116.258973,53.2583762 Z M126.676086,52.9707547 C126.676086,54.4121214 127.788277,55.5234974 129.229643,55.5234974 L137.424004,55.5234974 C146.482045,55.5234974 152.741275,49.2235273 152.741275,41.1114603 L152.741275,41.0291663 C152.741275,32.9170993 146.482045,26.6994232 137.424004,26.6994232 L129.229643,26.6994232 C127.788277,26.6994232 126.676086,27.8116139 126.676086,29.2521658 L126.676086,52.9707547 Z M131.740832,50.9117759 L131.740832,31.3111447 L137.424004,31.3111447 C143.476278,31.3111447 147.429648,35.4706567 147.429648,41.1114603 L147.429648,41.1937542 C147.429648,46.8353726 143.476278,50.9117759 137.424004,50.9117759 L131.740832,50.9117759 Z M155.829336,53.2583762 C155.829336,54.6590033 156.941527,55.7296397 158.299785,55.7296397 C159.700412,55.7296397 160.811788,54.6174489 160.811788,53.2583762 L160.811788,46.8353726 C160.811788,41.6883329 163.241497,38.9701875 166.782582,38.3525753 C167.894773,38.146433 168.759267,37.2819389 168.759267,35.9644206 C168.759267,34.5230539 167.853218,33.4939719 166.288818,33.4939719 C164.105991,33.4939719 161.964718,35.5529507 160.811788,38.2702813 L160.811788,36.0467145 C160.811788,34.6469022 159.700412,33.5347114 158.299785,33.5347114 C156.899972,33.5347114 155.829336,34.6469022 155.829336,36.0467145 L155.829336,53.2583762 Z M181.194619,56.0172612 C187.906874,56.0172612 192.846956,50.8702215 192.846956,44.6940998 L192.846956,44.6118058 C192.846956,38.3941297 187.947613,33.3293839 181.276913,33.3293839 C174.606213,33.3293839 169.665315,38.4764236 169.665315,44.6940998 L169.665315,44.7763937 C169.665315,50.9525155 174.565473,56.0172612 181.194619,56.0172612 L181.194619,56.0172612 Z M181.276913,51.6532364 C177.406652,51.6532364 174.647767,48.4820668 174.647767,44.6940998 L174.647767,44.6118058 C174.647767,40.823024 177.20051,37.6934087 181.194619,37.6934087 C185.106435,37.6934087 187.865319,40.8645784 187.865319,44.6940998 L187.865319,44.7763937 C187.865319,48.5236211 185.312577,51.6532364 181.276913,51.6532364 L181.276913,51.6532364 Z M196.678107,59.8467826 C196.678107,61.2474097 197.789483,62.3172313 199.147741,62.3172313 C200.549183,62.3172313 201.659744,61.2474097 201.659744,59.8467826 L201.659744,52.1470002 C203.183405,54.1644247 205.446897,55.9765216 209.071905,55.9765216 C214.21813,55.9765216 219.159842,51.9001183 219.159842,44.6940998 L219.159842,44.6118058 C219.159842,37.3642328 214.176576,33.3293839 209.071905,33.3293839 C205.53082,33.3293839 203.264884,35.1406661 201.659744,37.4057872 L201.659744,36.0467145 C201.659744,34.6469022 200.549183,33.5347114 199.147741,33.5347114 C197.747114,33.5347114 196.678107,34.6469022 196.678107,36.0467145 L196.678107,59.8467826 Z M207.877421,51.6532364 C204.500923,51.6532364 201.536711,48.852797 201.536711,44.6940998 L201.536711,44.6118058 C201.536711,40.4522937 204.500923,37.6526691 207.877421,37.6526691 C211.253918,37.6526691 214.095097,40.4115541 214.095097,44.6118058 L214.095097,44.6940998 C214.095097,48.9766454 211.295472,51.6532364 207.877421,51.6532364 L207.877421,51.6532364 Z" id="Fill-1" fill="#FFFFFF"></path>
            <path d="M221.168549,28.8969166 C220.641378,28.8969166 220.159836,29.0313572 219.724738,29.3010533 C219.289639,29.5707494 218.946611,29.9333318 218.694026,30.3888004 C218.441441,30.8434542 218.315148,31.3347736 218.315148,31.8627587 C218.315148,32.389929 218.439811,32.8804336 218.689952,33.3326431 C218.939278,33.7848525 219.281491,34.1441757 219.71659,34.4106126 C220.151688,34.6770495 220.629971,34.8106754 221.151438,34.8106754 C221.679423,34.8106754 222.16178,34.6762347 222.599323,34.4065387 C223.037681,34.1368426 223.382338,33.7742602 223.634923,33.3196064 C223.887509,32.8641378 224.013802,32.3728184 224.013802,31.8448333 C224.013802,31.3119595 223.887509,30.8190104 223.634923,30.366801 C223.382338,29.9145915 223.038496,29.5568979 222.603397,29.2929054 C222.169113,29.0289129 221.69083,28.8969166 221.168549,28.8969166 L221.168549,28.8969166 Z M221.151438,34.237062 C220.725302,34.237062 220.335017,34.1295095 219.981397,33.9152192 C219.627777,33.700929 219.349933,33.4116779 219.14868,33.0499103 C218.946611,32.687328 218.845577,32.2913392 218.845577,31.8627587 C218.845577,31.4333634 218.947426,31.0365598 219.152754,30.6707183 C219.357266,30.3056916 219.637555,30.0148109 219.994434,29.7972615 C220.350498,29.5797121 220.742413,29.47053 221.168549,29.47053 C221.594685,29.47053 221.98497,29.5780825 222.33859,29.7923728 C222.692209,30.0074778 222.970868,30.2959141 223.176196,30.6576817 C223.380708,31.020264 223.483372,31.4162528 223.483372,31.8448333 C223.483372,32.2742286 223.380708,32.6726617 223.176196,33.0409476 C222.970868,33.4092335 222.69058,33.700929 222.334516,33.9152192 C221.977637,34.1295095 221.584092,34.237062 221.151438,34.237062 L221.151438,34.237062 Z M222.380959,31.3144038 C222.380959,30.9958202 222.280739,30.7505679 222.08193,30.5794616 C221.882306,30.4091702 221.600388,30.3228022 221.236176,30.3228022 L220.082431,30.3228022 L220.082431,33.2104243 L220.612861,33.2104243 L220.612861,32.3581521 L221.236176,32.3581521 L221.337211,32.3581521 L221.833419,33.2104243 L222.439624,33.2104243 L221.817123,32.2538588 C221.996377,32.1723796 222.134892,32.0526052 222.233481,31.892906 C222.331256,31.7332068 222.380959,31.5409159 222.380959,31.3144038 L222.380959,31.3144038 Z M220.612861,30.7750117 L221.236176,30.7750117 C221.438245,30.7750117 221.594685,30.8222696 221.707126,30.9143411 C221.819567,31.0072273 221.875788,31.1432976 221.875788,31.3233665 C221.875788,31.5034355 221.819567,31.6435797 221.707126,31.7454287 C221.594685,31.8464629 221.438245,31.89698 221.236176,31.89698 L220.612861,31.89698 L220.612861,30.7750117 Z" id="Fill-3" fill="#5B5B5B"></path>
            <path d="M70.4293798,53.2176366 C70.4293798,54.6174489 71.5415706,55.7296397 72.9821225,55.7296397 C74.3827496,55.7296397 75.4941256,54.6174489 75.4941256,53.2176366 L75.4941256,46.2585 L81.2180379,46.2585 C87.5587476,46.2585 92.7473417,42.8820028 92.7473417,36.4174448 L92.7473417,36.3351508 C92.7473417,30.5289445 88.54709,26.6994232 81.7940957,26.6994232 L72.9821225,26.6994232 C71.5415706,26.6994232 70.4293798,27.8116139 70.4293798,29.2521658 L70.4293798,53.2176366 Z M75.4941256,41.6883329 L75.4941256,31.3111447 L81.3826258,31.3111447 C85.1705928,31.3111447 87.6003019,33.082502 87.6003019,36.4581844 L87.6003019,36.5412931 C87.6003019,39.54706 85.2121472,41.6883329 81.3826258,41.6883329 L75.4941256,41.6883329 Z M95.630075,28.1823442 C95.630075,29.6644505 96.8644846,30.6527929 98.471254,30.6527929 C100.076393,30.6527929 101.312432,29.6644505 101.312432,28.1823442 L101.312432,27.9346475 C101.312432,26.4525412 100.076393,25.5057532 98.471254,25.5057532 C96.8644846,25.5057532 95.630075,26.4525412 95.630075,27.9346475 L95.630075,28.1823442 Z M95.9999905,53.2583762 C95.9999905,54.6590033 97.1121813,55.7296397 98.471254,55.7296397 C99.8710662,55.7296397 100.982442,54.6590033 100.982442,53.2583762 L100.982442,36.0467145 C100.982442,34.6469022 99.8710662,33.5347114 98.471254,33.5347114 C97.0706269,33.5347114 95.9999905,34.6469022 95.9999905,36.0467145 L95.9999905,53.2583762 Z M106.129481,53.2583762 C106.129481,54.6590033 107.240857,55.7296397 108.59993,55.7296397 C109.999742,55.7296397 111.111933,54.6590033 111.111933,53.2583762 L111.111933,27.72932 C111.111933,26.3702473 109.999742,25.2588713 108.59993,25.2588713 C107.200118,25.2588713 106.129481,26.3702473 106.129481,27.72932 L106.129481,53.2583762 Z M116.258973,53.2583762 C116.258973,54.6590033 117.370349,55.7296397 118.729422,55.7296397 C120.129234,55.7296397 121.241425,54.6590033 121.241425,53.2583762 L121.241425,27.72932 C121.241425,26.3702473 120.129234,25.2588713 118.729422,25.2588713 C117.329609,25.2588713 116.258973,26.3702473 116.258973,27.72932 L116.258973,53.2583762 Z M126.676086,52.9707547 C126.676086,54.4121214 127.788277,55.5234974 129.229643,55.5234974 L137.424004,55.5234974 C146.482045,55.5234974 152.741275,49.2235273 152.741275,41.1114603 L152.741275,41.0291663 C152.741275,32.9170993 146.482045,26.6994232 137.424004,26.6994232 L129.229643,26.6994232 C127.788277,26.6994232 126.676086,27.8116139 126.676086,29.2521658 L126.676086,52.9707547 Z M131.740832,50.9117759 L131.740832,31.3111447 L137.424004,31.3111447 C143.476278,31.3111447 147.429648,35.4706567 147.429648,41.1114603 L147.429648,41.1937542 C147.429648,46.8353726 143.476278,50.9117759 137.424004,50.9117759 L131.740832,50.9117759 Z M155.829336,53.2583762 C155.829336,54.6590033 156.941527,55.7296397 158.299785,55.7296397 C159.700412,55.7296397 160.811788,54.6174489 160.811788,53.2583762 L160.811788,46.8353726 C160.811788,41.6883329 163.241497,38.9701875 166.782582,38.3525753 C167.894773,38.146433 168.759267,37.2819389 168.759267,35.9644206 C168.759267,34.5230539 167.853218,33.4939719 166.288818,33.4939719 C164.105991,33.4939719 161.964718,35.5529507 160.811788,38.2702813 L160.811788,36.0467145 C160.811788,34.6469022 159.700412,33.5347114 158.299785,33.5347114 C156.899972,33.5347114 155.829336,34.6469022 155.829336,36.0467145 L155.829336,53.2583762 Z M181.194619,56.0172612 C187.906874,56.0172612 192.846956,50.8702215 192.846956,44.6940998 L192.846956,44.6118058 C192.846956,38.3941297 187.947613,33.3293839 181.276913,33.3293839 C174.606213,33.3293839 169.665315,38.4764236 169.665315,44.6940998 L169.665315,44.7763937 C169.665315,50.9525155 174.565473,56.0172612 181.194619,56.0172612 L181.194619,56.0172612 Z M181.276913,51.6532364 C177.406652,51.6532364 174.647767,48.4820668 174.647767,44.6940998 L174.647767,44.6118058 C174.647767,40.823024 177.20051,37.6934087 181.194619,37.6934087 C185.106435,37.6934087 187.865319,40.8645784 187.865319,44.6940998 L187.865319,44.7763937 C187.865319,48.5236211 185.312577,51.6532364 181.276913,51.6532364 L181.276913,51.6532364 Z M196.678107,59.8467826 C196.678107,61.2474097 197.789483,62.3172313 199.147741,62.3172313 C200.549183,62.3172313 201.659744,61.2474097 201.659744,59.8467826 L201.659744,52.1470002 C203.183405,54.1644247 205.446897,55.9765216 209.071905,55.9765216 C214.21813,55.9765216 219.159842,51.9001183 219.159842,44.6940998 L219.159842,44.6118058 C219.159842,37.3642328 214.176576,33.3293839 209.071905,33.3293839 C205.53082,33.3293839 203.264884,35.1406661 201.659744,37.4057872 L201.659744,36.0467145 C201.659744,34.6469022 200.549183,33.5347114 199.147741,33.5347114 C197.747114,33.5347114 196.678107,34.6469022 196.678107,36.0467145 L196.678107,59.8467826 Z M207.877421,51.6532364 C204.500923,51.6532364 201.536711,48.852797 201.536711,44.6940998 L201.536711,44.6118058 C201.536711,40.4522937 204.500923,37.6526691 207.877421,37.6526691 C211.253918,37.6526691 214.095097,40.4115541 214.095097,44.6118058 L214.095097,44.6940998 C214.095097,48.9766454 211.295472,51.6532364 207.877421,51.6532364 L207.877421,51.6532364 Z" id="Fill-5" fill="#5B5B5B"></path>
            <path d="M209.071905,33.0673839 C214.737471,33.0673839 219.27574,37.5883514 219.418384,44.2860353 L219.421842,44.6940998 C219.421842,51.5567911 214.840452,56.2385216 209.071905,56.2385216 C206.233843,56.2385216 204.038753,55.1868711 202.268603,53.2832522 L202.05821,53.0507413 L201.921081,52.8903259 L201.921744,59.8467826 C201.921744,61.2694424 200.878061,62.3969062 199.493636,62.5591571 L199.318859,62.5743628 L199.147741,62.5792313 C197.687012,62.5792313 196.506501,61.4656367 196.42106,60.0155495 L196.416107,59.8467826 L196.416107,36.0467145 C196.416107,34.4949166 197.609461,33.2727114 199.147741,33.2727114 C200.636099,33.2727114 201.830317,34.4123172 201.916736,35.8763895 L201.921744,36.0467145 L201.921081,36.6223259 L202.03768,36.4785035 C203.722759,34.4309176 205.782563,33.2539561 208.414896,33.0877931 L208.746934,33.0722975 L209.071905,33.0673839 Z M209.071905,33.5913839 C206.085742,33.5913839 203.860372,34.8825488 202.064319,37.2945595 L201.873513,37.5572704 L201.397744,38.228659 L201.397744,36.0467145 C201.397744,34.7910095 200.403893,33.7967114 199.147741,33.7967114 C197.955873,33.7967114 197.024262,34.6977728 196.945505,35.8833406 L196.940107,36.0467145 L196.940107,59.8467826 C196.940107,61.0875804 197.918894,62.0552313 199.147741,62.0552313 C200.358707,62.0552313 201.311647,61.1753941 201.392222,60.007737 L201.397744,59.8467826 L201.397744,51.3653691 L201.868816,51.9890986 C203.678426,54.3851378 205.958384,55.7145216 209.071905,55.7145216 C214.458704,55.7145216 218.754938,51.4144351 218.89435,45.0157716 L218.897842,44.6118058 C218.897842,38.0228798 214.537537,33.5913839 209.071905,33.5913839 Z M207.877421,37.3906691 C211.461348,37.3906691 214.239253,40.2906094 214.353443,44.3510682 L214.357097,44.6940998 C214.357097,48.9600833 211.591607,51.9152364 207.877421,51.9152364 C204.282722,51.9152364 201.397179,48.9672498 201.278508,44.9518344 L201.274711,44.6118058 C201.274711,40.4648947 204.205967,37.3906691 207.877421,37.3906691 Z M207.877421,37.9146691 C204.574491,37.9146691 201.916524,40.6269712 201.802521,44.3613515 L201.798711,44.6940998 C201.798711,48.5565156 204.501375,51.3912364 207.877421,51.3912364 C211.218228,51.3912364 213.719821,48.7974103 213.829354,44.9578056 L213.833097,44.6118058 C213.833097,40.6968164 211.23966,37.9146691 207.877421,37.9146691 Z M181.276913,33.0673839 C187.88696,33.0673839 192.95108,37.9929845 193.105335,44.3144769 L193.108956,44.6940998 C193.108956,51.1370282 187.928565,56.2792612 181.194619,56.2792612 C174.625389,56.2792612 169.561204,51.3535538 169.406937,45.0718291 L169.403315,44.6940998 C169.403315,38.2224288 174.571079,33.0673839 181.276913,33.0673839 Z M181.276913,33.5913839 C174.960449,33.5913839 170.08183,38.3595439 169.930915,44.405257 L169.927315,44.7763937 C169.927315,50.9081343 174.811258,55.7552612 181.194619,55.7552612 C187.539322,55.7552612 192.430061,50.9989525 192.581348,44.9815805 L192.584956,44.6118058 C192.584956,38.4383866 187.701715,33.5913839 181.276913,33.5913839 Z M181.194619,37.4314087 C185.084283,37.4314087 188.006001,40.4974887 188.123635,44.4461772 L188.127319,44.7763937 C188.127319,48.8309098 185.30971,51.9152364 181.276913,51.9152364 C177.427471,51.9152364 174.507048,48.8486787 174.389451,44.9395004 L174.385767,44.6118058 C174.385767,40.5283963 177.190434,37.4314087 181.194619,37.4314087 Z M181.194619,37.9554087 C177.572548,37.9554087 175.02257,40.6842143 174.913413,44.3650274 L174.909767,44.6940998 C174.909767,48.4387093 177.645954,51.3912364 181.276913,51.3912364 C184.928068,51.3912364 187.489994,48.6736825 187.599657,45.0212544 L187.603319,44.6940998 C187.603319,40.9074724 184.866678,37.9554087 181.194619,37.9554087 Z M81.7940957,26.4374232 C88.5185691,26.4374232 92.8651173,30.2017673 93.0058199,36.0414453 L93.0093417,36.4174448 C93.0093417,42.5797412 88.3037016,46.397942 81.546585,46.5176021 L81.2180379,46.5205 L75.7560815,46.5203259 L75.7561256,53.2176366 C75.7561256,54.6457001 74.7058709,55.8040891 73.3265279,55.9709822 L73.1524482,55.9866276 L72.9821225,55.9916397 C71.462232,55.9916397 70.2594337,54.8578783 70.1724224,53.388611 L70.1673798,53.2176366 L70.1673798,29.2521658 C70.1673798,27.7256283 71.3074851,26.5289847 72.807492,26.4424384 L72.9821225,26.4374232 L81.7940957,26.4374232 Z M81.7940957,26.9614232 L72.9821225,26.9614232 C71.7402631,26.9614232 70.7748098,27.8751323 70.6965114,29.0918019 L70.6913798,29.2521658 L70.6913798,53.2176366 C70.6913798,54.4782723 71.6918688,55.4676397 72.9821225,55.4676397 C74.1854374,55.4676397 75.1488078,54.554202 75.2269996,53.3731513 L75.2321256,53.2176366 L75.2321256,45.9965 L81.2180379,45.9965 C87.7754367,45.9965 92.3339466,42.4774285 92.4816436,36.707796 L92.4853417,36.3351508 C92.4853417,30.7274251 88.4906877,27.0843527 82.1200654,26.9644747 L81.7940957,26.9614232 Z M81.3826258,31.0491447 C85.3203123,31.0491447 87.7501039,32.921516 87.858515,36.2253662 L87.8623019,36.5412931 C87.8623019,39.6884797 85.3941253,41.8503153 81.6461724,41.9469549 L81.3826258,41.9503329 L75.2321256,41.9503329 L75.2321256,31.0491447 L81.3826258,31.0491447 Z M81.3826258,31.5731447 L75.7560815,31.5723259 L75.7560815,41.4263329 L81.3826258,41.4263329 C84.9177264,41.4263329 87.223768,39.5463587 87.3341549,36.7525288 L87.3383019,36.4581844 C87.3383019,33.4042832 85.2506553,31.6595625 81.65511,31.5762709 L81.3826258,31.5731447 Z M98.471254,33.2727114 C96.9327143,33.2727114 95.7379905,34.495194 95.7379905,36.0467145 L95.7379905,53.2583762 C95.7379905,54.7900618 96.9536656,55.9916397 98.471254,55.9916397 C100.022639,55.9916397 101.244442,54.7970427 101.244442,53.2583762 L101.244442,36.0467145 C101.244442,34.5020726 100.015633,33.2727114 98.471254,33.2727114 Z M98.471254,33.7967114 C99.7261839,33.7967114 100.720442,34.791417 100.720442,36.0467145 L100.720442,53.2583762 C100.720442,54.5049716 99.73585,55.4676397 98.471254,55.4676397 C97.2417035,55.4676397 96.2619905,54.4992876 96.2619905,53.2583762 L96.2619905,36.0467145 C96.2619905,34.7819317 97.2248395,33.7967114 98.471254,33.7967114 Z M108.59993,24.9968713 C107.068794,24.9968713 105.867481,26.2120043 105.867481,27.72932 L105.867481,53.2583762 C105.867481,54.7901875 107.082477,55.9916397 108.59993,55.9916397 C110.151451,55.9916397 111.373933,54.7969159 111.373933,53.2583762 L111.373933,27.72932 C111.373933,26.2187608 110.13759,24.9968713 108.59993,24.9968713 Z M108.59993,25.5208713 C109.849563,25.5208713 110.849933,26.5095463 110.849933,27.72932 L110.849933,53.2583762 C110.849933,54.5047907 109.864713,55.4676397 108.59993,55.4676397 C107.370567,55.4676397 106.391481,54.4994674 106.391481,53.2583762 L106.391481,27.72932 C106.391481,26.5000682 107.359541,25.5208713 108.59993,25.5208713 Z M118.729422,24.9968713 C117.198285,24.9968713 115.996973,26.2120043 115.996973,27.72932 L115.996973,53.2583762 C115.996973,54.7901875 117.211968,55.9916397 118.729422,55.9916397 C120.280942,55.9916397 121.503425,54.7969159 121.503425,53.2583762 L121.503425,27.72932 C121.503425,26.2187608 120.267082,24.9968713 118.729422,24.9968713 Z M118.729422,25.5208713 C119.979055,25.5208713 120.979425,26.5095463 120.979425,27.72932 L120.979425,53.2583762 C120.979425,54.5047907 119.994204,55.4676397 118.729422,55.4676397 C117.500059,55.4676397 116.520973,54.4994674 116.520973,53.2583762 L116.520973,27.72932 C116.520973,26.5000682 117.489032,25.5208713 118.729422,25.5208713 Z M166.288818,33.2319719 L166.079791,33.237857 C164.270878,33.339418 162.468345,34.7477422 161.226337,36.8617683 L161.073081,37.1293259 L161.073788,36.0467145 C161.073788,34.5019344 159.844841,33.2727114 158.299785,33.2727114 C156.761921,33.2727114 155.567336,34.4953332 155.567336,36.0467145 L155.567336,53.2583762 C155.567336,54.7899233 156.782875,55.9916397 158.299785,55.9916397 C159.837862,55.9916397 161.073788,54.7693316 161.073788,53.2583762 L161.073788,46.8353726 C161.073788,42.0707501 163.193401,39.2445313 166.827599,38.6106789 C168.129393,38.3694089 169.021267,37.3483711 169.021267,35.9644206 C169.021267,34.3354025 167.95663,33.2319719 166.288818,33.2319719 Z M166.288818,33.7559719 C167.662953,33.7559719 168.497267,34.6206865 168.497267,35.9644206 C168.497267,37.0903075 167.790639,37.8992715 166.734834,38.0949629 C162.839579,38.7743321 160.549788,41.8274609 160.549788,46.8353726 L160.549788,53.2583762 C160.549788,54.4786269 159.549756,55.4676397 158.299785,55.4676397 C157.070939,55.4676397 156.091336,54.4991761 156.091336,53.2583762 L156.091336,36.0467145 C156.091336,34.7820446 157.054074,33.7967114 158.299785,33.7967114 C159.555418,33.7967114 160.549788,34.7913052 160.549788,36.0467145 L160.549788,39.5585748 L161.052976,38.3726147 C162.216241,35.630928 164.305982,33.7559719 166.288818,33.7559719 Z M137.424004,26.4374232 C146.374286,26.4374232 152.837949,32.4849131 153.000152,40.7116855 L153.003275,41.1114603 C153.003275,49.4100472 146.636843,55.6264448 137.766402,55.7824923 L137.424004,55.7854974 L129.229643,55.7854974 C127.702192,55.7854974 126.505639,54.6460234 126.419101,53.1454554 L126.414086,52.9707547 L126.414086,29.2521658 C126.414086,27.7254967 127.554318,26.5289749 129.05494,26.4424379 L129.229643,26.4374232 L137.424004,26.4374232 Z M137.424004,26.9614232 L129.229643,26.9614232 C127.987109,26.9614232 127.021526,27.8750308 126.943218,29.0917892 L126.938086,29.2521658 L126.938086,52.9707547 C126.938086,54.2132164 127.851624,55.1781176 129.06916,55.256369 L129.229643,55.2614974 L137.424004,55.2614974 C146.074026,55.2614974 152.315444,49.3779878 152.4761,41.426404 L152.479275,41.0291663 C152.479275,33.0413534 146.367113,27.1169707 137.764852,26.9644379 L137.424004,26.9614232 Z M137.424004,31.0491447 C143.416463,31.0491447 147.551993,35.0850365 147.68818,40.8184778 L147.691648,41.1937542 C147.691648,46.9677308 143.671868,51.0363466 137.727889,51.1703632 L137.424004,51.1737759 L131.478832,51.1737759 L131.478832,31.0491447 L137.424004,31.0491447 Z M137.424004,31.5731447 L132.002081,31.5723259 L132.002081,50.6493259 L137.424004,50.6497759 C143.146048,50.6497759 147.031868,46.9072653 147.164161,41.4808963 L147.167648,41.1114603 C147.167648,35.6089317 143.363283,31.7094743 137.722569,31.576646 L137.424004,31.5731447 Z M98.471254,25.2437532 C96.683888,25.2437532 95.368075,26.3335999 95.368075,27.9346475 L95.368075,28.1823442 C95.368075,29.7899267 96.6935357,30.9147929 98.471254,30.9147929 C100.247906,30.9147929 101.574432,29.7894719 101.574432,28.1823442 L101.574432,27.9346475 C101.574432,26.3340428 100.257558,25.2437532 98.471254,25.2437532 Z M98.471254,25.7677532 C99.9877178,25.7677532 101.050432,26.647615 101.050432,27.9346475 L101.050432,28.1823442 C101.050432,29.4792131 99.9758639,30.3907929 98.471254,30.3907929 C96.9656149,30.3907929 95.892075,29.479722 95.892075,28.1823442 L95.892075,27.9346475 C95.892075,26.6471173 96.9537644,25.7677532 98.471254,25.7677532 Z" id="Stroke-7" fill="#5B5B5B"></path>
            <path d="M70.0721751,78.0190023 C70.0721751,78.1998861 70.2269856,78.3546965 70.4078693,78.3546965 C70.5887531,78.3546965 70.7435636,78.1998861 70.7435636,78.0190023 L70.7435636,74.9342006 L73.1822354,74.9342006 C75.0668488,74.9342006 76.7062098,73.9531913 76.7062098,72.056356 L76.7062098,72.0302827 C76.7062098,70.2882579 75.3381744,69.2681385 73.3500825,69.2681385 L70.4078693,69.2681385 C70.2269856,69.2681385 70.0721751,69.422949 70.0721751,69.6038328 L70.0721751,78.0190023 Z M70.7435636,74.3149589 L70.7435636,69.8881951 L73.2987506,69.8881951 C74.925075,69.8881951 76.0348214,70.6369887 76.0348214,72.0693927 L76.0348214,72.0946513 C76.0348214,73.4374281 74.8990017,74.3149589 73.2213454,74.3149589 L70.7435636,74.3149589 Z M78.2934242,78.032039 C78.2934242,78.2251447 78.4360128,78.3546965 78.6160818,78.3546965 C78.7969656,78.3546965 78.9257027,78.2251447 78.9257027,78.032039 L78.9257027,74.4958426 C78.9257027,73.1278072 79.9197486,72.1467979 81.2103788,72.1467979 C82.540119,72.1467979 83.3011346,73.0373654 83.3011346,74.3923641 L83.3011346,78.032039 C83.3011346,78.2251447 83.4429083,78.3546965 83.6237921,78.3546965 C83.8046759,78.3546965 83.933413,78.2251447 83.933413,78.032039 L83.933413,74.2758489 C83.933413,72.7016711 82.9654403,71.5658514 81.3008207,71.5658514 C80.1006324,71.5658514 79.3648754,72.1720565 78.9257027,72.9469235 L78.9257027,69.1524381 C78.9257027,68.9715543 78.7839289,68.8297806 78.6030451,68.8297806 C78.4229761,68.8297806 78.2934242,68.9715543 78.2934242,69.1524381 L78.2934242,78.032039 Z M87.9478921,78.4581751 C89.1994123,78.4581751 90.0125745,77.8381186 90.4647839,77.2058401 L90.4647839,78.032039 C90.4647839,78.2251447 90.593521,78.3546965 90.7744048,78.3546965 C90.9544738,78.3546965 91.0840257,78.2251447 91.0840257,78.032039 L91.0840257,74.1984436 C91.0840257,73.3852814 90.85181,72.7790764 90.4126373,72.3399036 C89.9351693,71.8624356 89.2254856,71.6171833 88.3349182,71.6171833 C87.4956827,71.6171833 86.8373309,71.8111037 86.1667573,72.1076879 C86.1015739,72.1337613 85.9858735,72.2372398 85.9858735,72.3920503 C85.9858735,72.5468607 86.1276473,72.6886345 86.2824577,72.6886345 C86.3215677,72.6886345 86.3728996,72.6755978 86.4242315,72.6495245 C86.9668828,72.3920503 87.5730879,72.2111665 88.2958082,72.2111665 C89.6516217,72.2111665 90.4647839,72.8947768 90.4647839,74.224517 L90.4647839,74.5080645 C89.8316907,74.3402174 89.1994123,74.224517 88.2827715,74.224517 C86.5798567,74.224517 85.404927,74.9985692 85.404927,76.3666046 L85.404927,76.3926779 C85.404927,77.7607133 86.7216305,78.4581751 87.9478921,78.4581751 L87.9478921,78.4581751 Z M87.9861873,77.8641919 C86.9799195,77.8641919 86.0763154,77.3093187 86.0763154,76.3543827 L86.0763154,76.3283094 C86.0763154,75.4116686 86.8503676,74.7924269 88.2444763,74.7924269 C89.1863756,74.7924269 89.9221326,74.9472373 90.4770058,75.0890111 L90.4770058,75.8378047 C90.4770058,77.037993 89.3289642,77.8641919 87.9861873,77.8641919 L87.9861873,77.8641919 Z M93.0973762,78.032039 C93.0973762,78.2251447 93.23915,78.3546965 93.4200338,78.3546965 C93.6001027,78.3546965 93.7296546,78.2129228 93.7296546,78.032039 L93.7296546,75.6055891 C93.7296546,73.48876 94.9811748,72.4433821 96.3752836,72.314645 C96.5822407,72.3016084 96.7109778,72.1467979 96.7109778,71.9659142 C96.7109778,71.7719937 96.569204,71.6171833 96.3752836,71.6171833 C95.4464209,71.6171833 94.2975645,72.314645 93.7296546,73.5922386 L93.7296546,71.9919875 C93.7296546,71.798067 93.5878809,71.6693299 93.4069971,71.6693299 C93.2261133,71.6693299 93.0973762,71.8111037 93.0973762,71.9919875 L93.0973762,78.032039 Z M98.001608,78.032039 C98.001608,78.2251447 98.1433817,78.3546965 98.3242655,78.3546965 C98.5051493,78.3546965 98.6338864,78.2251447 98.6338864,78.032039 L98.6338864,74.5080645 C98.6338864,73.1791391 99.562749,72.1467979 100.737678,72.1467979 C101.911793,72.1467979 102.660587,72.9852187 102.660587,74.3540689 L102.660587,78.032039 C102.660587,78.2251447 102.802361,78.3546965 102.983244,78.3546965 C103.164128,78.3546965 103.292865,78.2251447 103.292865,78.032039 L103.292865,74.4697693 C103.292865,72.9982553 104.260838,72.1467979 105.371399,72.1467979 C106.584624,72.1467979 107.319566,72.9729968 107.319566,74.3923641 L107.319566,78.032039 C107.319566,78.2251447 107.462155,78.3546965 107.643039,78.3546965 C107.823108,78.3546965 107.95266,78.2251447 107.95266,78.032039 L107.95266,74.3149589 C107.95266,72.6625611 106.984687,71.5658514 105.422731,71.5658514 C104.183433,71.5658514 103.473749,72.2502765 103.047613,72.9852187 C102.68666,72.2242031 101.976977,71.5658514 100.82812,71.5658514 C99.6531909,71.5658514 99.0600225,72.2111665 98.6338864,72.8947768 L98.6338864,71.9919875 C98.6338864,71.798067 98.4921126,71.6693299 98.3112288,71.6693299 C98.1303451,71.6693299 98.001608,71.8111037 98.001608,71.9919875 L98.001608,78.032039 Z M112.017656,78.4581751 C113.269991,78.4581751 114.083153,77.8381186 114.534548,77.2058401 L114.534548,78.032039 C114.534548,78.2251447 114.663285,78.3546965 114.844168,78.3546965 C115.025052,78.3546965 115.153789,78.2251447 115.153789,78.032039 L115.153789,74.1984436 C115.153789,73.3852814 114.921574,72.7790764 114.483216,72.3399036 C114.005748,71.8624356 113.295249,71.6171833 112.404682,71.6171833 C111.566261,71.6171833 110.907909,71.8111037 110.236521,72.1076879 C110.172152,72.1337613 110.055637,72.2372398 110.055637,72.3920503 C110.055637,72.5468607 110.198226,72.6886345 110.353036,72.6886345 C110.391331,72.6886345 110.443478,72.6755978 110.49481,72.6495245 C111.036646,72.3920503 111.643666,72.2111665 112.366387,72.2111665 C113.721385,72.2111665 114.534548,72.8947768 114.534548,74.224517 L114.534548,74.5080645 C113.902269,74.3402174 113.269991,74.224517 112.35335,74.224517 C110.64962,74.224517 109.475505,74.9985692 109.475505,76.3666046 L109.475505,76.3926779 C109.475505,77.7607133 110.792209,78.4581751 112.017656,78.4581751 L112.017656,78.4581751 Z M112.056766,77.8641919 C111.049683,77.8641919 110.146079,77.3093187 110.146079,76.3543827 L110.146079,76.3283094 C110.146079,75.4116686 110.920946,74.7924269 112.315055,74.7924269 C113.256954,74.7924269 113.992711,74.9472373 114.547584,75.0890111 L114.547584,75.8378047 C114.547584,77.037993 113.398728,77.8641919 112.056766,77.8641919 L112.056766,77.8641919 Z M120.071058,78.4581751 C121.193841,78.4581751 121.955671,77.992929 122.614023,77.3223554 C122.665355,77.2702087 122.691428,77.1928035 122.691428,77.1284349 C122.691428,76.9736245 122.536618,76.818814 122.381807,76.818814 C122.291365,76.818814 122.226997,76.8701459 122.17485,76.9222926 C121.64605,77.4510925 120.961625,77.8641919 120.110168,77.8641919 C118.600359,77.8641919 117.399356,76.599635 117.399356,75.0116058 L117.399356,74.9863473 C117.399356,73.4113548 118.561249,72.1598346 120.058021,72.1598346 C120.948589,72.1598346 121.568645,72.5851559 122.097445,73.0886972 C122.149592,73.1400291 122.240034,73.1661025 122.317439,73.1661025 C122.497508,73.1661025 122.639282,73.0243287 122.639282,72.8434449 C122.639282,72.753003 122.600986,72.6625611 122.549654,72.6112292 C121.955671,72.056356 121.206878,71.5658514 120.071058,71.5658514 C118.187259,71.5658514 116.715745,73.1661025 116.715745,75.0116058 L116.715745,75.0376792 C116.715745,76.8831826 118.174223,78.4581751 120.071058,78.4581751 L120.071058,78.4581751 Z M125.0144,80.4063423 C125.957114,80.4063423 126.627687,79.9166524 127.208634,78.5355803 L129.880336,72.1598346 C129.906409,72.0946513 129.919446,72.056356 129.919446,71.9919875 C129.919446,71.8111037 129.776858,71.6693299 129.596789,71.6693299 C129.428941,71.6693299 129.3385,71.7719937 129.286353,71.9015456 L126.989455,77.6059029 L124.356048,71.9268041 C124.291679,71.7850304 124.214274,71.6693299 124.021168,71.6693299 C123.827248,71.6693299 123.685474,71.8111037 123.685474,71.9919875 C123.685474,72.056356 123.711547,72.1207246 123.736806,72.1850931 L126.679834,78.2642547 L126.640724,78.3546965 C126.214588,79.3357059 125.77623,79.8131738 125.05351,79.8131738 C124.653447,79.8131738 124.421231,79.761842 124.214274,79.683622 C124.136869,79.6583634 124.0725,79.6322901 124.008132,79.6322901 C123.840285,79.6322901 123.711547,79.761842 123.711547,79.9288743 C123.711547,80.0714628 123.788138,80.1610899 123.891616,80.2001999 C124.240347,80.328937 124.576042,80.4063423 125.0144,80.4063423 L125.0144,80.4063423 Z M130.306472,77.5798296 L130.306472,77.9285604 C130.306472,78.1738128 130.487356,78.3546965 130.732608,78.3546965 C130.977861,78.3546965 131.15793,78.1738128 131.15793,77.9285604 L131.15793,77.5798296 C131.15793,77.3345772 130.977861,77.1545082 130.732608,77.1545082 C130.487356,77.1545082 130.306472,77.3345772 130.306472,77.5798296 L130.306472,77.5798296 Z M139.856647,78.0190023 C139.856647,78.1998861 140.012272,78.3546965 140.192341,78.3546965 C140.373225,78.3546965 140.528035,78.1998861 140.528035,78.0190023 L140.528035,74.7150216 L144.025936,69.7977532 C144.077268,69.720348 144.129415,69.6299061 144.129415,69.5394642 C144.129415,69.3716171 143.961568,69.2168067 143.793721,69.2168067 C143.651132,69.2168067 143.573727,69.3072486 143.496322,69.4107271 L140.205378,74.1210384 L136.92747,69.4107271 C136.850065,69.2942119 136.759623,69.2168067 136.617849,69.2168067 C136.436966,69.2168067 136.269119,69.3716171 136.269119,69.5525009 C136.269119,69.6168694 136.295192,69.6942747 136.333487,69.7586432 L139.856647,74.7280583 L139.856647,78.0190023 Z M147.252512,78.4581751 C149.21453,78.4581751 150.646934,76.8571092 150.646934,75.0116058 L150.646934,74.9863473 C150.646934,73.1400291 149.226752,71.5658514 147.278585,71.5658514 C145.316566,71.5658514 143.884163,73.1661025 143.884163,75.0116058 L143.884163,75.0376792 C143.884163,76.8831826 145.30353,78.4581751 147.252512,78.4581751 L147.252512,78.4581751 Z M147.278585,77.8641919 C145.754924,77.8641919 144.567773,76.599635 144.567773,75.0116058 L144.567773,74.9863473 C144.567773,73.4374281 145.690556,72.1598346 147.252512,72.1598346 C148.775358,72.1598346 149.962509,73.4243914 149.962509,75.0116058 L149.962509,75.0376792 C149.962509,76.5865984 148.839726,77.8641919 147.278585,77.8641919 L147.278585,77.8641919 Z M157.848879,71.9919875 C157.848879,71.798067 157.70629,71.6693299 157.526221,71.6693299 C157.345338,71.6693299 157.216601,71.798067 157.216601,71.9919875 L157.216601,75.5281838 C157.216601,76.8962193 156.222555,77.8772286 154.931924,77.8772286 C153.602184,77.8772286 152.841169,76.9866611 152.841169,75.6316624 L152.841169,71.9919875 C152.841169,71.798067 152.699395,71.6693299 152.518511,71.6693299 C152.337627,71.6693299 152.20889,71.798067 152.20889,71.9919875 L152.20889,75.7473628 C152.20889,77.3223554 153.176863,78.4581751 154.841482,78.4581751 C156.041671,78.4581751 156.777428,77.8511552 157.216601,77.077103 L157.216601,78.032039 C157.216601,78.2251447 157.358374,78.3546965 157.538443,78.3546965 C157.719327,78.3546965 157.848879,78.2129228 157.848879,78.032039 L157.848879,71.9919875 Z M159.990967,78.032039 C159.990967,78.2251447 160.13274,78.3546965 160.313624,78.3546965 C160.494508,78.3546965 160.623245,78.2129228 160.623245,78.032039 L160.623245,75.6055891 C160.623245,73.48876 161.87558,72.4433821 163.268874,72.314645 C163.475831,72.3016084 163.604568,72.1467979 163.604568,71.9659142 C163.604568,71.7719937 163.462794,71.6171833 163.268874,71.6171833 C162.340011,71.6171833 161.191155,72.314645 160.623245,73.5922386 L160.623245,71.9919875 C160.623245,71.798067 160.481471,71.6693299 160.300587,71.6693299 C160.119704,71.6693299 159.990967,71.8111037 159.990967,71.9919875 L159.990967,78.032039 Z M171.142207,78.1094442 C171.206576,78.290328 171.310054,78.4060284 171.490123,78.4060284 L171.516196,78.4060284 C171.69708,78.4060284 171.813595,78.2772913 171.864927,78.1094442 L174.420114,70.5204735 L176.976116,78.1094442 C177.027448,78.2772913 177.143148,78.4060284 177.324032,78.4060284 L177.350106,78.4060284 C177.530989,78.4060284 177.633653,78.2772913 177.698836,78.1094442 L180.718455,69.7333847 C180.744528,69.6690161 180.770601,69.6038328 180.770601,69.5525009 C180.770601,69.3846538 180.602754,69.2168067 180.434907,69.2168067 C180.280097,69.2168067 180.176618,69.3202852 180.11225,69.4881323 L177.350106,77.3093187 L174.781882,69.4750957 C174.729735,69.3333219 174.627071,69.2168067 174.459224,69.2168067 L174.433151,69.2168067 C174.252267,69.2168067 174.161825,69.3333219 174.110493,69.4750957 L171.54227,77.3093187 L168.793162,69.5264275 C168.741016,69.3716171 168.612278,69.2168067 168.431395,69.2168067 C168.250511,69.2168067 168.083479,69.3846538 168.083479,69.5655375 C168.083479,69.6168694 168.096515,69.6690161 168.121774,69.7333847 L171.142207,78.1094442 Z M183.571041,78.4581751 C184.822561,78.4581751 185.635723,77.8381186 186.087933,77.2058401 L186.087933,78.032039 C186.087933,78.2251447 186.21667,78.3546965 186.397554,78.3546965 C186.577623,78.3546965 186.707174,78.2251447 186.707174,78.032039 L186.707174,74.1984436 C186.707174,73.3852814 186.474959,72.7790764 186.035786,72.3399036 C185.558318,71.8624356 184.848634,71.6171833 183.958067,71.6171833 C183.118831,71.6171833 182.461294,71.8111037 181.789906,72.1076879 C181.725537,72.1337613 181.609022,72.2372398 181.609022,72.3920503 C181.609022,72.5468607 181.750796,72.6886345 181.906421,72.6886345 C181.944716,72.6886345 181.996048,72.6755978 182.048195,72.6495245 C182.590032,72.3920503 183.196237,72.2111665 183.918957,72.2111665 C185.27477,72.2111665 186.087933,72.8947768 186.087933,74.224517 L186.087933,74.5080645 C185.455654,74.3402174 184.822561,74.224517 183.906735,74.224517 C182.203005,74.224517 181.028076,74.9985692 181.028076,76.3666046 L181.028076,76.3926779 C181.028076,77.7607133 182.344779,78.4581751 183.571041,78.4581751 L183.571041,78.4581751 Z M183.609336,77.8641919 C182.603068,77.8641919 181.699464,77.3093187 181.699464,76.3543827 L181.699464,76.3283094 C181.699464,75.4116686 182.473516,74.7924269 183.867625,74.7924269 C184.810339,74.7924269 185.545281,74.9472373 186.100155,75.0890111 L186.100155,75.8378047 C186.100155,77.037993 184.952113,77.8641919 183.609336,77.8641919 L183.609336,77.8641919 Z M189.263176,80.4063423 C190.205076,80.4063423 190.875649,79.9166524 191.457411,78.5355803 L194.127483,72.1598346 C194.153557,72.0946513 194.167408,72.056356 194.167408,71.9919875 C194.167408,71.8111037 194.024005,71.6693299 193.843936,71.6693299 C193.676903,71.6693299 193.585647,71.7719937 193.534315,71.9015456 L191.236602,77.6059029 L188.60401,71.9268041 C188.540456,71.7850304 188.463051,71.6693299 188.26913,71.6693299 C188.07521,71.6693299 187.933436,71.8111037 187.933436,71.9919875 C187.933436,72.056356 187.958695,72.1207246 187.984768,72.1850931 L190.927796,78.2642547 L190.889501,78.3546965 C190.463365,79.3357059 190.025007,79.8131738 189.300657,79.8131738 C188.901409,79.8131738 188.670008,79.761842 188.463051,79.683622 C188.385646,79.6583634 188.320462,79.6322901 188.255279,79.6322901 C188.088247,79.6322901 187.958695,79.761842 187.958695,79.9288743 C187.958695,80.0714628 188.036915,80.1610899 188.139578,80.2001999 C188.489124,80.328937 188.824818,80.4063423 189.263176,80.4063423 L189.263176,80.4063423 Z M194.553619,77.5798296 L194.553619,77.9285604 C194.553619,78.1738128 194.734503,78.3546965 194.98057,78.3546965 C195.224193,78.3546965 195.407521,78.1738128 195.407521,77.9285604 L195.407521,77.5798296 C195.407521,77.3345772 195.224193,77.1545082 194.98057,77.1545082 C194.734503,77.1545082 194.553619,77.3345772 194.553619,77.5798296 L194.553619,77.5798296 Z" id="Fill-9" fill="#5B5B5B"></path>
        </g>
        <g id="xpress" transform="translate(224.195000, 35.012000)" fill="#C1C1C1" fill-rule="nonzero">
            <polygon id="Path" points="0 19.988 8.246 9.272 8.208 10.184 0.418 0.152 2.584 0.152 9.386 8.93 8.588 8.93 15.352 0.152 17.48 0.152 9.614 10.298 9.652 9.272 18.012 19.988 15.77 19.988 8.588 10.64 9.31 10.716 2.166 19.988"></polygon>
            <path d="M32.832,20.14 C31.084,20.14 29.507,19.7346667 28.101,18.924 C26.695,18.1133333 25.5803333,16.9543333 24.757,15.447 C23.9336667,13.9396667 23.522,12.1473333 23.522,10.07 C23.522,7.99266667 23.9336667,6.20033333 24.757,4.693 C25.5803333,3.18566667 26.695,2.02666667 28.101,1.216 C29.507,0.405333333 31.084,0 32.832,0 C34.7066667,0 36.385,0.424333333 37.867,1.273 C39.349,2.12166667 40.5143333,3.306 41.363,4.826 C42.2116667,6.346 42.636,8.094 42.636,10.07 C42.636,12.046 42.2116667,13.794 41.363,15.314 C40.5143333,16.834 39.349,18.0183333 37.867,18.867 C36.385,19.7156667 34.7066667,20.14 32.832,20.14 Z M22.876,27.36 L22.876,0.152 L24.7,0.152 L24.7,6.65 L24.396,10.108 L24.776,13.566 L24.776,27.36 L22.876,27.36 Z M32.718,18.43 C34.238,18.43 35.606,18.0816667 36.822,17.385 C38.038,16.6883333 38.9943333,15.7066667 39.691,14.44 C40.3876667,13.1733333 40.736,11.7166667 40.736,10.07 C40.736,8.398 40.3876667,6.935 39.691,5.681 C38.9943333,4.427 38.038,3.45166667 36.822,2.755 C35.606,2.05833333 34.238,1.71 32.718,1.71 C31.198,1.71 29.8363333,2.05833333 28.633,2.755 C27.4296667,3.45166667 26.4796667,4.427 25.783,5.681 C25.0863333,6.935 24.738,8.398 24.738,10.07 C24.738,11.7166667 25.0863333,13.1733333 25.783,14.44 C26.4796667,15.7066667 27.4296667,16.6883333 28.633,17.385 C29.8363333,18.0816667 31.198,18.43 32.718,18.43 Z" id="Shape"></path>
            <path d="M48.526,19.988 L48.526,0.152 L50.35,0.152 L50.35,5.586 L50.16,4.978 C50.7173333,3.382 51.6546667,2.15333333 52.972,1.292 C54.2893333,0.430666667 55.936,0 57.912,0 L57.912,1.862 C57.836,1.862 57.76,1.85566667 57.684,1.843 C57.608,1.83033333 57.532,1.824 57.456,1.824 C55.252,1.824 53.5293333,2.51433333 52.288,3.895 C51.0466667,5.27566667 50.426,7.19466667 50.426,9.652 L50.426,19.988 L48.526,19.988 Z" id="Path"></path>
            <path d="M71.554,20.14 C69.5526667,20.14 67.7856667,19.7093333 66.253,18.848 C64.7203333,17.9866667 63.517,16.796 62.643,15.276 C61.769,13.756 61.332,12.0206667 61.332,10.07 C61.332,8.094 61.7436667,6.35233333 62.567,4.845 C63.3903333,3.33766667 64.524,2.15333333 65.968,1.292 C67.412,0.430666667 69.0333333,0 70.832,0 C72.6306667,0 74.2456667,0.418 75.677,1.254 C77.1083333,2.09 78.2356667,3.26166667 79.059,4.769 C79.8823333,6.27633333 80.294,8.018 80.294,9.994 C80.294,10.07 80.2876667,10.1523333 80.275,10.241 C80.2623333,10.3296667 80.256,10.4246667 80.256,10.526 L62.738,10.526 L62.738,9.044 L79.23,9.044 L78.47,9.766 C78.4953333,8.22066667 78.1723333,6.83366667 77.501,5.605 C76.8296667,4.37633333 75.924,3.41366667 74.784,2.717 C73.644,2.02033333 72.3266667,1.672 70.832,1.672 C69.3626667,1.672 68.0516667,2.02033333 66.899,2.717 C65.7463333,3.41366667 64.8406667,4.37633333 64.182,5.605 C63.5233333,6.83366667 63.194,8.23333333 63.194,9.804 L63.194,10.146 C63.194,11.7673333 63.555,13.205 64.277,14.459 C64.999,15.713 65.9933333,16.6883333 67.26,17.385 C68.5266667,18.0816667 69.9706667,18.43 71.592,18.43 C72.8586667,18.43 74.043,18.202 75.145,17.746 C76.247,17.29 77.178,16.5933333 77.938,15.656 L79.04,16.91 C78.1786667,17.974 77.0956667,18.7783333 75.791,19.323 C74.4863333,19.8676667 73.074,20.14 71.554,20.14 Z" id="Path"></path>
            <path d="M91.2,20.14 C89.5533333,20.14 88.0143333,19.8993333 86.583,19.418 C85.1516667,18.9366667 84.0433333,18.3286667 83.258,17.594 L84.132,16.074 C84.892,16.7326667 85.9053333,17.2963333 87.172,17.765 C88.4386667,18.2336667 89.8066667,18.468 91.276,18.468 C93.3533333,18.468 94.848,18.126 95.76,17.442 C96.672,16.758 97.128,15.8586667 97.128,14.744 C97.128,13.9333333 96.8936667,13.2936667 96.425,12.825 C95.9563333,12.3563333 95.3293333,11.9953333 94.544,11.742 C93.7586667,11.4886667 92.8973333,11.2796667 91.96,11.115 C91.0226667,10.9503333 90.0853333,10.7666667 89.148,10.564 C88.2106667,10.3613333 87.3493333,10.07 86.564,9.69 C85.7786667,9.31 85.1516667,8.78433333 84.683,8.113 C84.2143333,7.44166667 83.98,6.54866667 83.98,5.434 C83.98,4.42066667 84.2586667,3.50866667 84.816,2.698 C85.3733333,1.88733333 86.2093333,1.235 87.324,0.741 C88.4386667,0.247 89.832,0 91.504,0 C92.7453333,0 93.993,0.177333333 95.247,0.532 C96.501,0.886666667 97.5206667,1.35533333 98.306,1.938 L97.432,3.458 C96.596,2.82466667 95.6586667,2.36866667 94.62,2.09 C93.5813333,1.81133333 92.53,1.672 91.466,1.672 C89.5406667,1.672 88.1283333,2.02666667 87.229,2.736 C86.3296667,3.44533333 85.88,4.332 85.88,5.396 C85.88,6.232 86.1143333,6.897 86.583,7.391 C87.0516667,7.885 87.6786667,8.265 88.464,8.531 C89.2493333,8.797 90.1106667,9.01233333 91.048,9.177 C91.9853333,9.34166667 92.9226667,9.52533333 93.86,9.728 C94.7973333,9.93066667 95.6586667,10.2156667 96.444,10.583 C97.2293333,10.9503333 97.8563333,11.457 98.325,12.103 C98.7936667,12.749 99.028,13.6166667 99.028,14.706 C99.028,15.7953333 98.7303333,16.7453333 98.135,17.556 C97.5396667,18.3666667 96.6593333,19 95.494,19.456 C94.3286667,19.912 92.8973333,20.14 91.2,20.14 Z" id="Path"></path>
            <path d="M109.364,20.14 C107.717333,20.14 106.178333,19.8993333 104.747,19.418 C103.315667,18.9366667 102.207333,18.3286667 101.422,17.594 L102.296,16.074 C103.056,16.7326667 104.069333,17.2963333 105.336,17.765 C106.602667,18.2336667 107.970667,18.468 109.44,18.468 C111.517333,18.468 113.012,18.126 113.924,17.442 C114.836,16.758 115.292,15.8586667 115.292,14.744 C115.292,13.9333333 115.057667,13.2936667 114.589,12.825 C114.120333,12.3563333 113.493333,11.9953333 112.708,11.742 C111.922667,11.4886667 111.061333,11.2796667 110.124,11.115 C109.186667,10.9503333 108.249333,10.7666667 107.312,10.564 C106.374667,10.3613333 105.513333,10.07 104.728,9.69 C103.942667,9.31 103.315667,8.78433333 102.847,8.113 C102.378333,7.44166667 102.144,6.54866667 102.144,5.434 C102.144,4.42066667 102.422667,3.50866667 102.98,2.698 C103.537333,1.88733333 104.373333,1.235 105.488,0.741 C106.602667,0.247 107.996,0 109.668,0 C110.909333,0 112.157,0.177333333 113.411,0.532 C114.665,0.886666667 115.684667,1.35533333 116.47,1.938 L115.596,3.458 C114.76,2.82466667 113.822667,2.36866667 112.784,2.09 C111.745333,1.81133333 110.694,1.672 109.63,1.672 C107.704667,1.672 106.292333,2.02666667 105.393,2.736 C104.493667,3.44533333 104.044,4.332 104.044,5.396 C104.044,6.232 104.278333,6.897 104.747,7.391 C105.215667,7.885 105.842667,8.265 106.628,8.531 C107.413333,8.797 108.274667,9.01233333 109.212,9.177 C110.149333,9.34166667 111.086667,9.52533333 112.024,9.728 C112.961333,9.93066667 113.822667,10.2156667 114.608,10.583 C115.393333,10.9503333 116.020333,11.457 116.489,12.103 C116.957667,12.749 117.192,13.6166667 117.192,14.706 C117.192,15.7953333 116.894333,16.7453333 116.299,17.556 C115.703667,18.3666667 114.823333,19 113.658,19.456 C112.492667,19.912 111.061333,20.14 109.364,20.14 Z" id="Path"></path>
        </g>
    </g>
</svg>