<?xml version="1.0" encoding="UTF-8"?>
<svg width="60px" height="60px" viewBox="0 0 60 60" version="1.1" xmlns="http://www.w3.org/2000/svg" xmlns:xlink="http://www.w3.org/1999/xlink">
    <title>previous</title>
    <g id="Page-1" stroke="none" stroke-width="1" fill="none" fill-rule="evenodd">
        <g id="Group-11" fill="#ec1d24" transform="translate(30.002000, 30.002000) scale(-1, 1) translate(-30.002000, -30.002000) translate(-0.000000, 0.000000)">
            <path d="M30.002,0 C37.9589022,0 45.590285,3.16090242 51.216477,8.78752303 C56.8430976,14.4139293 60.004,22.0450978 60.004,30.002 C60.004,37.9589022 56.8430976,45.590285 51.216477,51.216477 C45.5900707,56.8430976 37.9589022,60.004 30.002,60.004 C22.0450978,60.004 14.413715,56.8430976 8.78752303,51.216477 C3.16090242,45.5900707 0,37.9589022 0,30.002 C0,22.0450978 3.16090242,14.413715 8.78752303,8.78752303 C14.4139293,3.16090242 22.0448835,0 30.002,0 Z M30.002,1.19996428 C22.365474,1.20789332 15.0443954,4.24428833 9.64471691,9.64460976 C4.24503838,15.0449312 1.20800047,22.3657955 1.20007143,30.0018929 C1.20007143,37.6405618 4.23453775,44.966355 9.63593067,50.3677479 C15.0373236,55.7691408 22.3631168,58.8036071 30.0017857,58.8036071 C37.6404546,58.8036071 44.9662478,55.7691408 50.3676407,50.3677479 C55.7690336,44.966355 58.8035,37.6405618 58.8035,30.0018929 C58.8035,22.3632239 55.7690336,15.0374307 50.3676407,9.63603782 C44.9662478,4.2346449 37.6403475,1.19996428 30.0017857,1.19996428 Z M26.9780343,19.0757782 L37.6046668,29.7024107 L26.9780343,40.3290432 L26.1258764,39.477314 L35.9065657,29.7024107 L26.1258764,19.9279361 L26.9780343,19.0757782 Z" id="previous"></path>
        </g>
    </g>
</svg>